# xmcd
#
# Track frame offsets: 
#        150
#        12460
#        20222
#        34587
#        48892
#        67461
#        82353
#        96957
#        108796
#        120620
#        148850
#        157944
#        173240
#        184389
#
# Disc length: 2559 seconds
#
# Revision: 0
# Processed by: cddbd v1.5.2PL0 Copyright (c) Steve Scherf et al.
# Submitted via: ExactAudioCopyFreeDBPlugin 1.0
#
DISCID=c909fd0e
DTITLE=Johnny Cash - Johnny Cash Live Very Best Of
DYEAR=2010
DGENRE=Country
TTITLE0=Folsom Prison Blues
TTITLE1=I Still Miss Someone
TTITLE2=Man in Black
TTITLE3=That Silver-Haired Daddy of Mine
TTITLE4=Medley
TTITLE5=I Got a Woman
TTITLE6=Life of A Prisoner
TTITLE7=What Is Truth
TTITLE8=Belshazzar
TTITLE9=Children, Go Where I send Thee
TTITLE10=Wreck of The Old 97
TTITLE11=A Boy Named Sue
TTITLE12=I Walk The Line
TTITLE13=Big River
EXTD=
EXTT0=
EXTT1=
EXTT2=
EXTT3=
EXTT4=
EXTT5=
EXTT6=
EXTT7=
EXTT8=
EXTT9=
EXTT10=
EXTT11=
EXTT12=
EXTT13=
PLAYORDER=
